HIERARCHY
ROOT Hips
{
    OFFSET 0.000000 0.000000 0.000000
    CHANNELS 6 Xposition Yposition Zposition Zrotation Xrotation Yrotation
        JOINT Chest
        {
            OFFSET -0.000000 30.832245 -0.000000
            CHANNELS 3 Zrotation Xrotation Yrotation
            JOINT Neck
            {
                OFFSET -0.000000 22.747684 0.000000
                CHANNELS 3 Zrotation Xrotation Yrotation
                JOINT Head
                {
                    OFFSET -0.000000 10.755556 0.000000
                    CHANNELS 3 Zrotation Xrotation Yrotation
                    End Site
                    {
                        OFFSET -0.000000 16.622223 0.000000
                    }
                }
            }
            JOINT LeftCollar
            {
                OFFSET -0.000000 22.747684 0.000000
                CHANNELS 3 Zrotation Xrotation Yrotation
                JOINT LeftShoulder
                {
                    OFFSET 19.555553 -0.000000 0.000000
                    CHANNELS 3 Zrotation Xrotation Yrotation
                    JOINT LeftElbow
                    {
                        OFFSET 22.529686 0.000000 0.000000
                        CHANNELS 3 Zrotation Xrotation Yrotation
                        JOINT LeftWrist
                        {
                            OFFSET 26.249420 0.000000 0.000000
                            CHANNELS 3 Zrotation Xrotation Yrotation
                            End Site
                            {
                                OFFSET 0.000000 -14.666668 0.000000
                            }
                        }
                    }
                }
            }
            JOINT RightCollar
            {
                OFFSET -0.000000 22.747684 0.000000
                CHANNELS 3 Zrotation Xrotation Yrotation
                JOINT RightShoulder
                {
                    OFFSET -19.555553 0.000000 0.000000
                    CHANNELS 3 Zrotation Xrotation Yrotation
                    JOINT RightElbow
                    {
                        OFFSET -22.529686 0.000000 0.000000
                        CHANNELS 3 Zrotation Xrotation Yrotation
                        JOINT RightWrist
                        {
                            OFFSET -26.249420 0.000000 0.000000
                            CHANNELS 3 Zrotation Xrotation Yrotation
                            End Site
                            {
                                OFFSET -0.000000 -14.666668 0.000000
                            }
                        }
                    }
                }
            }
        }
    JOINT LeftHip
    {
        OFFSET 11.733333 0.000000 0.000000
        CHANNELS 3 Zrotation Xrotation Yrotation
        JOINT LeftKnee
        {
            OFFSET -0.000000 -34.781296 0.000000
            CHANNELS 3 Zrotation Xrotation Yrotation
            JOINT LeftAnkle
            {
                OFFSET -0.000000 -42.425819 0.000000
                CHANNELS 3 Zrotation Xrotation Yrotation
                End Site
                {
                    OFFSET -0.000000 -4.888888 16.622223
                }
            }
        }
    }
    JOINT RightHip
    {
        OFFSET -11.733333 0.000000 0.000000
        CHANNELS 3 Zrotation Xrotation Yrotation
        JOINT RightKnee
        {
            OFFSET -0.000000 -34.781296 0.000000
            CHANNELS 3 Zrotation Xrotation Yrotation
            JOINT RightAnkle
            {
                OFFSET -0.000000 -42.425819 0.000000
                CHANNELS 3 Zrotation Xrotation Yrotation
                End Site
                {
                    OFFSET -0.000000 -4.888888 16.622223
                }
            }
        }
    }
}
MOTION
Frames:    14
Frame Time:    0.010000
32.154179    85.630005    -8.048040    0.371107    2.423553    -38.818966    3.053137    16.105486    -3.612080    3.422651    -3.256073    2.477287    -3.075294    -8.144466    2.162634    -9.766277    0.111582    -0.842951    -16.591295    54.580158    -66.471687    11.948705    -3.453001    -32.135387    146.152756    -5.254663    37.224808    6.542838    0.217091    4.285463    58.301056    37.329994    24.629614    11.387938    4.004992    38.953976    -106.615112    -1.449121    -11.845551    9.788150    -13.367534    1.792459    -4.315567    24.766947    -8.070377    -3.408650    -7.177459    23.238613    -6.754629    -8.674145    -0.797913    0.143224    16.045723    -4.453016    5.169008    -5.492304    -16.434580    
32.315704    85.626068    -7.857566    0.436646    2.450670    -38.988094    2.885884    16.075560    -3.707006    2.528047    -3.122038    3.244059    -2.299144    -8.339762    3.007054    -9.891222    0.025635    0.590758    -16.335537    54.547276    -66.846359    12.372512    -3.627949    -32.074139    146.126968    -4.713690    36.520664    6.472127    0.279671    5.745631    57.965477    37.580795    24.569326    11.376949    4.058461    39.025841    -106.840965    -1.532265    -12.224659    9.676654    -13.457000    1.898743    -4.473623    24.964045    -7.986823    -3.098603    -7.195887    23.264179    -6.903575    -8.910042    -0.708890    0.069541    16.290905    -4.530417    5.411093    -5.407472    -16.364367    
32.440750    85.601440    -7.658587    0.462005    2.382508    -39.159523    2.767474    16.021133    -3.695433    2.578604    -3.105376    3.291271    -2.350968    -8.273651    3.050424    -9.967558    -0.031152    0.656199    -16.221121    54.497337    -66.840584    12.187733    -3.545285    -32.127819    145.745941    -5.266286    36.711937    6.476333    0.314533    5.779884    58.082531    37.716488    24.564716    11.151202    3.926902    39.010601    -106.875648    -1.572008    -12.466794    9.459492    -13.314314    1.737609    -4.573806    24.913021    -7.726310    -2.515181    -6.922422    23.325592    -7.172338    -9.011552    -0.510421    0.220866    16.504120    -4.614398    5.648392    -5.386285    -16.351019    
32.547821    85.602547    -7.515428    0.486583    2.363989    -39.288387    2.708722    15.970503    -3.703466    2.600453    -3.077369    3.330373    -2.343515    -8.242991    3.091128    -9.966591    -0.059120    0.635579    -16.169601    54.529896    -66.867043    12.175697    -3.504704    -32.133713    145.611923    -5.346449    36.630501    6.531076    0.320052    5.732409    58.005821    37.843620    24.580418    10.985620    3.864906    39.106060    -106.893974    -1.591744    -12.648179    9.341311    -13.272278    1.691834    -4.674822    24.938105    -7.568938    -2.186639    -6.800687    23.364840    -7.330620    -9.144580    -0.394277    0.269361    16.690578    -4.687863    5.743791    -5.317459    -16.310066    
32.671116    85.605827    -7.354454    0.516297    2.347630    -39.437618    2.648201    15.886598    -3.703873    2.633549    -3.010622    3.376736    -2.348521    -8.221442    3.138712    -9.989066    -0.031385    0.607809    -16.054081    54.531013    -66.931976    12.109190    -3.486367    -32.138710    145.559662    -5.446921    36.571716    6.597068    0.361080    5.679362    57.918224    37.956833    24.599733    10.882734    3.848902    39.119053    -106.963104    -1.656455    -12.852910    9.208146    -13.224304    1.613437    -4.800267    24.951422    -7.358702    -1.851700    -6.668343    23.409573    -7.515267    -9.319790    -0.259571    0.340061    16.926584    -4.794786    5.805920    -5.219086    -16.246750    
32.808624    85.611115    -7.179763    0.551485    2.336583    -39.605724    2.590503    15.767874    -3.700318    2.677569    -2.905332    3.428847    -2.368640    -8.210542    3.190117    -10.033938    -0.059824    0.567913    -15.891052    54.610237    -67.018745    12.249879    -3.541528    -32.125828    145.410690    -5.572698    36.609493    6.683039    0.341469    5.617300    57.852955    38.120251    24.538851    10.652109    3.756750    39.275352    -106.941872    -1.666548    -13.028139    9.063682    -13.174182    1.497695    -4.950318    24.950264    -7.092853    -1.537488    -6.537135    23.460808    -7.723049    -9.546861    -0.111173    0.436270    17.221874    -4.944226    5.828734    -5.086131    -16.153217    
32.957573    85.618378    -6.995697    0.591595    2.333539    -39.791870    2.538665    15.619512    -3.699525    2.727578    -2.769255    3.485691    -2.399753    -8.209740    3.246576    -10.097881    -0.032450    0.515173    -15.704687    54.641403    -67.105896    12.193412    -3.529495    -32.126446    145.502151    -5.697445    36.700142    6.780512    0.316568    5.546660    57.786812    38.290161    24.458105    10.471640    3.701424    39.374569    -106.968575    -1.699419    -13.223101    8.913406    -13.125168    1.349620    -5.122134    24.934305    -6.778337    -1.264579    -6.417653    23.519560    -7.948482    -9.834113    0.045001    0.558289    17.584761    -5.137274    5.813675    -4.915325    -16.026283    
33.114498    85.627716    -6.806561    0.634915    2.340122    -39.995842    2.495105    15.451672    -3.709601    2.775099    -2.615300    3.549550    -2.433818    -8.216703    3.311351    -10.171985    -0.067343    0.454943    -15.507005    54.729340    -67.198906    12.340631    -3.575022    -32.112507    145.577667    -5.838081    36.890709    6.878073    0.365727    5.472918    57.656166    38.422771    24.460453    10.372870    3.697295    39.390541    -107.051514    -1.759609    -13.436361    8.764451    -13.078722    1.182615    -5.310791    24.904915    -6.429692    -1.042668    -6.316664    23.585657    -8.184033    -10.187377    0.202601    0.703398    18.021420    -5.366766    5.770967    -4.706025    -15.867852    
33.275642    85.639328    -6.616539    0.678894    2.356881    -40.217976    2.461643    15.277373    -3.737893    2.811114    -2.459281    3.623524    -2.462059    -8.228580    3.385884    -10.247509    -0.028335    0.391436    -15.330628    54.715729    -67.275772    12.228685    -3.528244    -32.122551    145.966431    -5.965083    37.096535    6.986166    0.336270    5.399462    57.513687    38.623421    24.424454    10.081669    3.566413    39.633839    -107.001762    -1.716751    -13.607348    8.624983    -13.034544    1.014246    -5.511173    24.864132    -6.063962    -0.871092    -6.235806    23.657436    -8.420523    -10.610047    0.354682    0.865473    18.536060    -5.617785    5.721451    -4.461986    -15.683265    
33.437386    85.653481    -6.429598    0.720807    2.384139    -40.459011    2.439939    15.109175    -3.790176    2.826982    -2.314865    3.709258    -2.476205    -8.245220    3.474287    -10.313485    -0.028750    0.329287    -15.183578    54.698925    -67.350143    12.286357    -3.541027    -32.126198    146.311935    -6.102959    37.347610    7.091299    0.326274    5.330766    57.320011    38.815659    24.452620    9.884692    3.515249    39.774250    -107.042519    -1.699204    -13.826104    8.503653    -12.992211    0.861518    -5.719652    24.815159    -5.695477    -0.742067    -6.173258    23.731802    -8.647428    -11.105043    0.492916    1.034458    19.132927    -5.868032    5.690693    -4.191757    -15.480124    
33.596714    85.670578    -6.249129    0.757858    2.422105    -40.720982    2.431557    14.957470    -3.869969    2.815958    -2.193125    3.811519    -2.469524    -8.266721    3.579052    -10.360954    -0.001022    0.272232    -15.107244    54.591106    -67.387825    12.181946    -3.516014    -32.156704    146.811768    -6.220449    37.569138    7.189595    0.335395    5.271893    57.053860    39.003811    24.567896    9.685679    3.452489    39.940826    -107.108002    -1.663643    -14.042788    8.408521    -12.951910    0.738612    -5.934057    24.763187    -5.333724    -0.644115    -6.125278    23.805012    -8.853099    -11.676636    0.609111    1.196826    19.818911    -6.093786    5.701745    -3.907922    -15.264274    
33.751446    85.690926    -6.077607    0.787535    2.470692    -41.007599    2.437376    14.829986    -3.978989    2.775254    -2.101595    3.932111    -2.439166    -8.294610    3.704314    -10.381874    -0.029089    0.222215    -15.103615    54.466034    -67.397545    12.198243    -3.526249    -32.199017    147.206818    -6.309199    37.798588    7.281835    0.315774    5.225577    56.739491    39.209930    24.731857    9.420012    3.358672    40.195049    -107.152931    -1.583049    -14.254131    8.345246    -12.914751    0.656700    -6.151607    24.716352    -4.984142    -0.565387    -6.088512    23.873779    -9.025877    -12.330796    0.697940    1.338170    20.603792    -6.279385    5.771437    -3.626237    -15.035363    
33.900024    85.714508    -5.916713    0.808214    2.529011    -41.323032    2.456186    14.730740    -4.116877    2.705798    -2.043480    4.073509    -2.384940    -8.330329    3.851235    -10.371862    0.005210    0.180529    -15.170362    54.199314    -67.381187    11.990522    -3.457343    -32.289165    147.724915    -6.331522    37.978695    7.358571    0.350862    5.192509    56.344398    39.364567    25.022680    9.252562    3.335827    40.369724    -107.314285    -1.538009    -14.493700    8.315980    -12.882912    0.624901    -6.367700    24.685328    -4.651056    -0.495785    -6.061110    23.937262    -9.156079    -13.071427    0.759136    1.447196    21.495058    -6.422064    5.904504    -3.364319    -14.785932    
34.040924    85.740707    -5.767701    0.819201    2.594825    -41.669689    2.485285    14.660728    -4.282009    2.609487    -2.017476    4.237595    -2.306398    -8.376197    4.022747    -10.328660    -0.014447    0.152192    -15.273154    53.914101    -67.374474    11.990767    -3.457498    -32.399616    148.054703    -6.295290    38.157295    7.428494    0.329115    5.175879    55.923340    39.540855    25.334526    8.951793    3.228532    40.712769    -107.418983    -1.436361    -14.703057    8.319638    -12.858473    0.649426    -6.576670    24.680710    -4.338562    -0.428539    -6.042295    23.998121    -9.237365    -13.894645    0.798711    1.518923    22.490332    -6.529309    6.087276    -3.139771    -14.506417    
